<?xml version="1.0" encoding="iso-8859-1"?>
<!-- Generator: Adobe Illustrator 19.1.0, SVG Export Plug-In . SVG Version: 6.00 Build 0)  -->
<svg version="1.1" id="Layer_1" xmlns="http://www.w3.org/2000/svg" xmlns:xlink="http://www.w3.org/1999/xlink" x="0px" y="0px"
	 viewBox="0 0 493.717 426.376" style="enable-background:new 0 0 493.717 426.376;" xml:space="preserve">
<g style="display:none;">
	<path style="display:inline;" d="M-32.128-99.579c0,58.141-33.345,88.351-83.221,88.351c-49.306,0-82.936-30.21-82.936-86.641
		v-115.997h22.515v114.572c0,43.035,22.8,67.261,60.991,67.261c36.766,0,60.136-22.23,60.136-65.836v-115.997h22.515V-99.579z"/>
	<path style="display:inline;" d="M171.073-163.99c0,26.221-15.96,39.615-31.635,46.456c23.656,7.125,42.75,20.805,42.75,48.45
		c0,34.485-28.785,54.721-72.391,54.721H21.161v-199.502h84.931C145.423-213.866,171.073-194.485,171.073-163.99z M148.273-160.855
		c0-19.95-15.675-32.775-44.176-32.775H43.392v68.686h58.996C129.463-124.944,148.273-137.2,148.273-160.855z M159.388-70.509
		c0-21.945-18.24-34.485-53.011-34.485H43.392v70.396h66.976C140.578-34.598,159.388-47.994,159.388-70.509z"/>
	<path style="display:inline;" d="M251.437-213.866v199.502h-22.516v-199.502H251.437z"/>
	<path style="display:inline;" d="M401.059-10.943c-57.571,0-100.037-45.315-100.037-102.886
		c0-57.001,42.181-103.457,100.892-103.457c36.195,0,57.855,12.825,77.806,31.636l-15.39,16.53
		c-16.815-15.96-35.626-27.36-62.701-27.36c-44.176,0-77.235,35.625-77.235,82.081c0,46.455,33.345,82.651,77.235,82.651
		c27.36,0,45.315-10.546,64.411-28.786l14.82,14.535C460.054-24.908,437.255-10.943,401.059-10.943z"/>
	<path style="display:inline;" d="M520.186-213.866h22.515v178.697h112.292v20.806H520.186V-213.866z"/>
	<path style="display:inline;" d="M840.808-193.345H719.112v68.116h108.871v20.521H719.112v69.825h123.122v20.521H696.597v-199.502
		h144.211V-193.345z"/>
	<g style="display:inline;">
		<path d="M-316.346,11.313c-16.333,7.946-33.808,11.973-51.982,11.973c-7.814,0-15.777-0.768-23.667-2.281
			c-33.27-6.385-61.133-24.866-78.458-52.04c-16.676-26.157-22.496-58.091-16.388-89.921c5.332-27.783,19.682-53,40.407-71.008
			c21.547-18.722,48.119-28.618,76.844-28.618c7.964,0,16.098,0.786,24.177,2.336c33.269,6.384,61.133,24.866,78.458,52.041
			c16.676,26.157,22.497,58.092,16.388,89.921c-5.264,27.435-19.179,52.082-39.301,69.733l45.811,57.155l-24.839,19.908
			L-316.346,11.313z M-368.821-190.589c-20.7,0-39.867,7.25-55.429,20.966c-15.531,13.688-25.951,32.439-30.131,54.226
			c-4.702,24.503-0.419,48.928,12.061,68.775c12.658,20.131,32.766,33.739,56.618,38.316c5.555,1.066,11.184,1.606,16.73,1.606
			c11.421,0,22.682-2.315,32.802-6.721l-34.002-42.423l0.365-0.292l-0.579-0.724l25.595-19.43l14.694,19.551l20.215,25.22
			c13.65-13.238,23.141-30.986,26.852-50.327c4.702-24.504,0.419-48.929-12.061-68.775c-12.658-20.131-32.766-33.738-56.618-38.315
			C-357.422-190.033-363.179-190.589-368.821-190.589z"/>
		<path d="M-369.591-217.583c7.677,0,15.566,0.739,23.611,2.283c68.69,13.182,104.471,75.887,92.465,138.45
			c-5.344,27.846-19.78,52.644-40.513,69.907l45.752,57.083l-20.157,16.156l-47.086-58.747
			c-15.731,8.043-33.585,12.738-52.809,12.738c-7.507,0-15.223-0.716-23.101-2.228c-68.691-13.182-104.471-75.887-92.466-138.449
			C-473.296-175.627-427.455-217.583-369.591-217.583 M-368.97-3.699c13.544,0,26.363-3.081,37.533-8.613l-34.518-43.066l0.362-0.29
			l-0.529-0.661l20.744-15.747l12.884,17.141l22.297,27.82c14.868-13.41,25.922-32.317,30.114-54.163
			c9.902-51.598-19.461-100.701-71.06-110.603c-6.003-1.152-11.907-1.706-17.678-1.706c-43.841,0-79.757,32.031-88.507,77.626
			c-9.902,51.598,19.462,100.701,71.06,110.603C-380.418-4.237-374.632-3.699-368.97-3.699 M-369.591-223.583
			c-29.458,0-56.711,10.15-78.812,29.353c-21.23,18.447-35.928,44.268-41.385,72.708c-6.253,32.585-0.285,65.293,16.805,92.099
			c17.773,27.877,46.334,46.832,80.422,53.374c8.076,1.55,16.228,2.335,24.232,2.335c17.831,0,35.007-3.781,51.125-11.245
			l44.088,55.007l3.752,4.682l4.682-3.752l20.157-16.156l4.682-3.753l-3.752-4.682l-42.161-52.603
			c19.471-17.935,32.931-42.394,38.133-69.504c6.253-32.585,0.285-65.294-16.805-92.1c-17.773-27.877-46.334-46.833-80.422-53.374
			C-353.113-222.779-361.437-223.583-369.591-223.583L-369.591-223.583z M-368.97-9.699c-5.358,0-10.797-0.522-16.167-1.553
			c-23.027-4.419-42.433-17.547-54.644-36.966c-12.074-19.201-16.213-42.858-11.654-66.613
			c4.054-21.128,14.141-39.297,29.169-52.541c15.006-13.225,33.488-20.216,53.446-20.216c5.452,0,11.019,0.538,16.548,1.599
			c23.027,4.419,42.433,17.547,54.644,36.966c12.074,19.201,16.213,42.858,11.654,66.613c-3.381,17.618-11.704,33.864-23.667,46.392
			l-18.113-22.598l-12.827-17.066l-3.622-4.819l-4.802,3.645l-20.744,15.747l-4.901,3.72l0.629,0.786l-0.368,0.295l3.752,4.682
			l29.605,36.937C-349.796-11.411-359.321-9.699-368.97-9.699L-368.97-9.699z"/>
	</g>
</g>
<g>
	<linearGradient id="SVGID_1_" gradientUnits="userSpaceOnUse" x1="77.4736" y1="163.6169" x2="404.797" y2="163.6169">
		<stop  offset="0" style="stop-color:#00BCF6"/>
		<stop  offset="1" style="stop-color:#2975E2"/>
	</linearGradient>
	<rect x="77.474" y="-0.045" style="display:none;fill:url(#SVGID_1_);" width="327.323" height="327.323"/>
	
		<linearGradient id="SVGID_2_" gradientUnits="userSpaceOnUse" x1="166.3939" y1="209.0124" x2="493.7173" y2="209.0124" gradientTransform="matrix(1 0.2991 0 1 0 -95.121)">
		<stop  offset="0" style="stop-color:#4FA8F6"/>
		<stop  offset="1" style="stop-color:#29C5E2"/>
	</linearGradient>
	<polygon style="fill:url(#SVGID_2_);" points="493.717,425.23 166.394,327.323 166.394,0 493.717,97.906 	"/>
	
		<linearGradient id="SVGID_3_" gradientUnits="userSpaceOnUse" x1="0" y1="259.9293" x2="327.3234" y2="259.9293" gradientTransform="matrix(1 0.2991 0 1 0 -95.121)">
		<stop  offset="0" style="stop-color:#4F90F6"/>
		<stop  offset="1" style="stop-color:#2998E2"/>
	</linearGradient>
	<polygon style="fill:url(#SVGID_3_);" points="327.323,426.376 0,328.47 0,1.147 327.323,99.053 	"/>
</g>
<g>
	<path style="fill:#FFFFFF;" d="M284.125,357.024l-44.62-55.67c20.606-18.98,34.851-44.866,40.357-73.557
		c6.618-34.486,0.302-69.101-17.785-97.47c-18.81-29.503-49.036-49.563-85.112-56.486c-8.746-1.678-17.556-2.529-26.185-2.529
		c-31.176,0-60.018,10.742-83.407,31.065c-22.468,19.522-38.023,46.849-43.799,76.947c-6.618,34.485-0.302,69.1,17.785,97.469
		c18.81,29.503,49.036,49.563,85.112,56.486c8.546,1.64,17.175,2.472,25.645,2.472c18.871,0,37.048-4.001,54.107-11.901
		l46.659,58.215l3.971,4.955l4.955-3.971l21.332-17.098l4.955-3.971L284.125,357.024z M150.613,243.26l-5.186,3.937l0.666,0.832
		l-0.389,0.312l3.971,4.955l31.331,39.091c-9.276,3.469-19.357,5.281-29.568,5.281c-5.67,0-11.427-0.553-17.109-1.643
		c-24.369-4.677-44.907-18.57-57.831-39.122c-12.778-20.321-17.158-45.358-12.334-70.497c4.291-22.36,14.966-41.588,30.87-55.605
		c15.881-13.997,35.44-21.395,56.562-21.395c5.77,0,11.662,0.569,17.513,1.692c24.369,4.676,44.907,18.57,57.83,39.122
		c12.778,20.321,17.158,45.357,12.334,70.497c-3.578,18.645-12.387,35.839-25.047,49.098l-19.169-23.916l-13.575-18.061l-3.833-5.1
		l-5.082,3.858L150.613,243.26z"/>
</g>
</svg>
