<?xml version="1.0" encoding="utf-8"?>
<!-- Generator: Adobe Illustrator 20.0.0, SVG Export Plug-In . SVG Version: 6.00 Build 0)  -->
<svg version="1.1" id="Layer_1" xmlns="http://www.w3.org/2000/svg" xmlns:xlink="http://www.w3.org/1999/xlink" x="0px" y="0px"
	 width="30px" height="30px" viewBox="0 0 30 30" style="enable-background:new 0 0 30 30;" xml:space="preserve">
<style type="text/css">
	.st0{fill:#CCCCCC;}
</style>
<title>search</title>
<path class="st0" d="M19.3,17.6c1.2,1.1,2.5,2.3,3.7,3.4c1.3,1.3,2.6,2.6,3.9,3.9c0.2,0.1,0.3,0.3,0.4,0.5c0.4,0.5,0.3,1.3-0.2,1.8
	c-0.5,0.4-1.2,0.4-1.7-0.1c-0.8-0.8-1.7-1.7-2.5-2.5c-1.6-1.6-3.1-3.2-4.7-4.8c-0.2-0.2-0.3-0.4-0.4-0.6C12.5,22.9,7,20.9,4.4,17.5
	C1.2,13.4,1.9,7.5,6,4.4c3.3-2.6,8-2.6,11.4-0.1C20.9,6.9,22.8,12.4,19.3,17.6z M11.8,4.5c-4,0-7.3,3.3-7.3,7.3c0,4,3.3,7.3,7.3,7.3
	c4,0,7.3-3.3,7.3-7.3c0,0,0,0,0,0C19.1,7.8,15.8,4.5,11.8,4.5L11.8,4.5z"/>
</svg>
